# File created by Blade
# Date/Time:  Wed Jan 21 18:02:19 2015
# Frame Rate: 120.000 fps
#------------------------------------------------------
:FULLY-SPECIFIED
:DEGREES
557
root 18.524116 36.964663 -19.608306 -184.908042 16.104224 -153.651117
Spine 19.777719 5.677048 33.408953
Head -12.103827 -2.492960 -0.330776
LeftShoulder -1.810382 -26.461620 -6.470413
LeftArm -17.073981 12.797639 -80.350276
LeftForeArm -0.527552 0.000000 -0.733484
LeftHand -0.355088 -0.000000 -2.493615
LeftHandThumb1 -26.253704 0.000000 33.147579
RightShoulder 4.096724 -3.112223 6.174369
RightArm 43.247914 -29.692567 40.660022
RightForeArm -44.899329 -0.000000 9.855044
RightHand -6.607248 -0.000000 10.602322
RightHandThumb1 -24.326973 -0.000000 -32.862282
LeftUpLeg 9.414922 8.670238 18.493783
LeftLeg 8.956447 -0.000000 -0.000000
LeftFoot -23.603257 29.984309 -4.310549
LeftToeBase 22.364140 -0.000000 -0.000000
RightUpLeg -46.877128 -36.424236 -13.733936
RightLeg 3.331605 -0.000000 -0.000000
RightFoot -12.832541 -34.800096 7.573214
RightToeBase 1.151807 -0.000000 -0.000000
558
root 18.478979 36.916005 -19.624667 -184.649904 16.048262 -154.422952
Spine 19.087056 6.204635 32.462353
Head -11.811590 -2.660675 -0.005409
LeftShoulder -1.833864 -26.384477 -6.294091
LeftArm -17.007061 12.956291 -80.264576
LeftForeArm -0.907300 0.000000 -0.508745
LeftHand -0.347146 -0.000000 -2.337554
LeftHandThumb1 -26.253704 0.000000 33.147579
RightShoulder 3.712271 -3.458222 6.470788
RightArm 42.799737 -29.495128 41.059283
RightForeArm -44.588588 -0.000000 10.123942
RightHand -6.636621 0.000000 10.334651
RightHandThumb1 -24.326973 -0.000000 -32.862282
LeftUpLeg 9.130323 8.984807 17.622791
LeftLeg 8.629828 -0.000000 -0.000000
LeftFoot -23.422424 29.840014 -4.025115
LeftToeBase 22.390499 -0.000000 -0.000000
RightUpLeg -45.572569 -35.582439 -13.545588
RightLeg 3.623845 -0.000000 -0.000000
RightFoot -12.922924 -34.600385 7.918631
RightToeBase 1.077091 -0.000000 -0.000000
559
root 18.439302 36.864052 -19.626703 -184.187343 15.935598 -155.172407
Spine 18.152015 6.798079 31.477968
Head -11.509989 -2.913858 0.315636
LeftShoulder -1.850251 -26.285555 -6.103547
LeftArm -16.941850 13.095606 -80.151007
LeftForeArm -1.330524 -0.000000 -0.329900
LeftHand -0.171481 -0.000000 -2.259014
LeftHandThumb1 -26.253704 0.000000 33.147579
RightShoulder 3.286372 -3.810377 6.817681
RightArm 42.273148 -29.175280 41.591537
RightForeArm -44.556781 -0.000000 10.406267
RightHand -6.657329 -0.000000 10.139705
RightHandThumb1 -24.326973 -0.000000 -32.862282
LeftUpLeg 8.573271 9.121727 16.699092
LeftLeg 8.368467 -0.000000 -0.000000
LeftFoot -23.283383 29.895722 -3.730025
LeftToeBase 22.425580 -0.000000 -0.000000
RightUpLeg -44.489839 -34.671153 -13.333498
RightLeg 4.104432 -0.000000 -0.000000
RightFoot -12.964414 -34.527234 8.328673
RightToeBase 1.136127 -0.000000 -0.000000
560
root 18.410034 36.817589 -19.640202 -183.897343 15.908413 -155.913072
Spine 17.449473 7.312868 30.493575
Head -11.324171 -3.071888 0.689231
LeftShoulder -1.879782 -26.230823 -5.909994
LeftArm -16.872277 13.259492 -80.030130
LeftForeArm -1.721468 -0.000000 -0.188608
LeftHand -0.132631 -0.000000 -2.008260
LeftHandThumb1 -26.253704 0.000000 33.147579
RightShoulder 2.894284 -4.110058 7.150100
RightArm 42.030783 -29.127554 41.833099
RightForeArm -44.414390 -0.000000 10.465820
RightHand -6.508637 -0.000000 9.820643
RightHandThumb1 -24.326973 -0.000000 -32.862282
LeftUpLeg 8.253982 9.348775 15.856946
LeftLeg 8.079136 -0.000000 -0.000000
LeftFoot -23.146555 29.825107 -3.546970
LeftToeBase 22.457430 -0.000000 -0.000000
RightUpLeg -43.280038 -33.630492 -13.148707
RightLeg 4.693803 -0.000000 -0.000000
RightFoot -12.880796 -34.366067 8.592954
RightToeBase 1.344263 -0.000000 -0.000000
561
root 18.388731 36.771977 -19.644698 -183.451698 15.910460 -156.623658
Spine 16.583110 7.900636 29.482281
Head -11.124485 -3.159671 1.100592
LeftShoulder -1.947057 -26.137862 -5.702862
LeftArm -16.783634 13.429702 -79.869065
LeftForeArm -2.205149 -0.000000 -0.078841
LeftHand -0.084629 -0.000000 -1.887595
LeftHandThumb1 -26.253704 0.000000 33.147579
RightShoulder 2.569227 -4.387445 7.528315
RightArm 41.663549 -29.157604 42.034090
RightForeArm -43.938483 -0.000000 10.613009
RightHand -6.427440 0.000000 9.685665
RightHandThumb1 -24.326973 -0.000000 -32.862282
LeftUpLeg 7.771799 9.522842 15.013928
LeftLeg 7.813364 -0.000000 -0.000000
LeftFoot -23.021354 29.858848 -3.368710
LeftToeBase 22.498495 -0.000000 -0.000000
RightUpLeg -42.232584 -32.430903 -12.891709
RightLeg 5.352659 -0.000000 -0.000000
RightFoot -12.807464 -34.424182 8.943087
RightToeBase 1.556612 -0.000000 -0.000000
562
root 18.378518 36.729511 -19.653084 -183.199680 15.941051 -157.330224
Spine 15.968401 8.399905 28.472977
Head -10.992589 -3.277501 1.501027
LeftShoulder -1.927587 -26.071045 -5.493131
LeftArm -16.682751 13.501330 -79.674390
LeftForeArm -2.744060 -0.000000 0.069570
LeftHand -0.031535 -0.000000 -1.760901
LeftHandThumb1 -26.253704 0.000000 33.147579
RightShoulder 2.307440 -4.600149 7.867263
RightArm 41.343788 -29.141697 42.303218
RightForeArm -43.604070 0.000000 10.647277
RightHand -6.343162 0.000000 9.579842
RightHandThumb1 -24.326973 -0.000000 -32.862282
LeftUpLeg 7.529020 9.646398 14.219321
LeftLeg 7.485253 -0.000000 -0.000000
LeftFoot -22.881724 29.901186 -3.221625
LeftToeBase 22.548550 -0.000000 -0.000000
RightUpLeg -41.044967 -31.140262 -12.683228
RightLeg 6.135119 -0.000000 -0.000000
RightFoot -12.991749 -34.423600 9.562252
RightToeBase 1.542361 -0.000000 -0.000000
563
root 18.381361 36.688043 -19.655241 -182.803685 15.935386 -157.982173
Spine 15.179569 8.925996 27.453395
Head -10.878197 -3.365512 1.968806
LeftShoulder -1.937698 -25.963675 -5.266832
LeftArm -16.562473 13.667383 -79.481457
LeftForeArm -3.230432 0.000000 0.179584
LeftHand 0.004014 -0.000000 -1.488337
LeftHandThumb1 -26.253704 0.000000 33.147579
RightShoulder 2.005810 -4.807130 8.236022
RightArm 40.999843 -29.154651 42.569744
RightForeArm -43.344975 0.000000 10.783893
RightHand -6.144041 0.000000 9.598609
RightHandThumb1 -24.326973 -0.000000 -32.862282
LeftUpLeg 7.115025 9.771809 13.473196
LeftLeg 7.197947 -0.000000 -0.000000
LeftFoot -22.740310 29.969188 -3.044684
LeftToeBase 22.545879 -0.000000 -0.000000
RightUpLeg -40.019513 -29.853463 -12.311258
RightLeg 6.920078 -0.000000 -0.000000
RightFoot -12.829822 -34.449807 9.590751
RightToeBase 1.224670 -0.000000 -0.000000
564
root 18.395740 36.650239 -19.660087 -182.486583 15.914690 -158.586622
Spine 14.480917 9.376310 26.472314
Head -10.784303 -3.529123 2.409291
LeftShoulder -1.917462 -25.854185 -5.038245
LeftArm -16.416906 13.836215 -79.293800
LeftForeArm -3.885533 -0.000000 0.299183
LeftHand -0.002790 -0.000000 -1.314041
LeftHandThumb1 -26.253704 0.000000 33.147579
RightShoulder 1.745242 -5.033383 8.585890
RightArm 40.729027 -29.183643 42.806392
RightForeArm -42.573198 -0.000000 10.821223
RightHand -6.145169 -0.000000 9.269762
RightHandThumb1 -24.326973 -0.000000 -32.862282
LeftUpLeg 6.822745 9.788397 12.789021
LeftLeg 6.848459 -0.000000 -0.000000
LeftFoot -22.601523 30.100316 -2.904964
LeftToeBase 22.585087 -0.000000 -0.000000
RightUpLeg -38.918509 -28.538933 -11.902487
RightLeg 7.757058 -0.000000 -0.000000
RightFoot -12.771948 -34.418555 9.580262
RightToeBase 1.123633 -0.000000 -0.000000
565
root 18.416321 36.613980 -19.670096 -182.217434 15.922823 -159.197347
Spine 13.832008 9.756538 25.449777
Head -10.775184 -3.623999 2.931184
LeftShoulder -1.961366 -25.866536 -4.757279
LeftArm -16.379542 13.791225 -79.074984
LeftForeArm -4.328542 -0.000000 0.400065
LeftHand 0.073373 -0.000000 -1.165762
LeftHandThumb1 -26.253704 0.000000 33.147579
RightShoulder 1.553905 -5.235180 8.928272
RightArm 40.396782 -29.132000 43.142105
RightForeArm -42.152414 -0.000000 10.907248
RightHand -6.108303 -0.000000 9.516926
RightHandThumb1 -24.326973 -0.000000 -32.862282
LeftUpLeg 6.578864 9.770715 12.112143
LeftLeg 6.529194 -0.000000 -0.000000
LeftFoot -22.483795 30.265774 -2.838418
LeftToeBase 22.613102 -0.000000 -0.000000
RightUpLeg -37.820041 -27.167652 -11.473334
RightLeg 8.638330 -0.000000 -0.000000
RightFoot -12.880418 -34.410340 9.557713
RightToeBase 1.249189 -0.000000 -0.000000
566
root 18.441022 36.577826 -19.673903 -181.812358 15.941454 -159.798139
Spine 13.009494 10.234945 24.419889
Head -10.655299 -3.735274 3.398585
LeftShoulder -2.022655 -25.736158 -4.493937
LeftArm -16.238061 14.061900 -78.915689
LeftForeArm -4.919369 0.000000 0.507012
LeftHand 0.003246 -0.000000 -0.834542
LeftHandThumb1 -26.253704 0.000000 33.147579
RightShoulder 1.288955 -5.480658 9.262151
RightArm 39.987757 -28.926261 43.677335
RightForeArm -41.740985 -0.000000 11.056112
RightHand -6.050874 -0.000000 9.553488
RightHandThumb1 -24.326973 -0.000000 -32.862282
LeftUpLeg 6.170038 9.763538 11.427911
LeftLeg 6.260855 -0.000000 -0.000000
LeftFoot -22.386554 30.439656 -2.797805
LeftToeBase 22.605916 -0.000000 -0.000000
RightUpLeg -36.899605 -25.751757 -10.946757
RightLeg 9.535605 -0.000000 -0.000000
RightFoot -13.221209 -34.348183 9.768336
RightToeBase 1.898702 -0.000000 -0.000000
